<mxfile host="app.diagrams.net" modified="2021-05-23T03:43:26.189Z" agent="5.0 (Windows NT 10.0; Win64; x64) AppleWebKit/537.36 (KHTML, like Gecko) Chrome/90.0.4430.212 Safari/537.36" etag="wVLU8p_ITPGikGeh9XCH" version="14.7.0" type="github">
  <diagram id="yYT3m9Dj2HtvRk5uN_p4" name="Page-1">
    <mxGraphModel dx="1718" dy="967" grid="0" gridSize="10" guides="1" tooltips="1" connect="1" arrows="1" fold="1" page="1" pageScale="1" pageWidth="1169" pageHeight="827" math="0" shadow="0">
      <root>
        <mxCell id="0" />
        <mxCell id="1" parent="0" />
        <mxCell id="TcdkBibvs6jl7-KhR7l1-1" value="" style="shape=table;html=1;whiteSpace=wrap;startSize=0;container=1;collapsible=0;childLayout=tableLayout;" vertex="1" parent="1">
          <mxGeometry x="19" y="106" width="716" height="42" as="geometry" />
        </mxCell>
        <mxCell id="TcdkBibvs6jl7-KhR7l1-2" value="" style="shape=partialRectangle;html=1;whiteSpace=wrap;collapsible=0;dropTarget=0;pointerEvents=0;fillColor=none;top=0;left=0;bottom=0;right=0;points=[[0,0.5],[1,0.5]];portConstraint=eastwest;" vertex="1" parent="TcdkBibvs6jl7-KhR7l1-1">
          <mxGeometry width="716" height="42" as="geometry" />
        </mxCell>
        <mxCell id="TcdkBibvs6jl7-KhR7l1-7" value="&lt;font style=&quot;font-size: 18px&quot;&gt;DontCare&lt;/font&gt;" style="shape=partialRectangle;html=1;whiteSpace=wrap;connectable=0;overflow=hidden;fillColor=none;top=0;left=0;bottom=0;right=0;" vertex="1" parent="TcdkBibvs6jl7-KhR7l1-2">
          <mxGeometry width="123" height="42" as="geometry" />
        </mxCell>
        <mxCell id="TcdkBibvs6jl7-KhR7l1-3" value="&lt;span&gt;&lt;font style=&quot;font-size: 18px&quot;&gt;VPN[2]&lt;/font&gt;&lt;/span&gt;" style="shape=partialRectangle;html=1;whiteSpace=wrap;connectable=0;overflow=hidden;fillColor=none;top=0;left=0;bottom=0;right=0;" vertex="1" parent="TcdkBibvs6jl7-KhR7l1-2">
          <mxGeometry x="123" width="125" height="42" as="geometry" />
        </mxCell>
        <mxCell id="TcdkBibvs6jl7-KhR7l1-4" value="&lt;span&gt;&lt;font style=&quot;font-size: 18px&quot;&gt;VPN[1]&lt;/font&gt;&lt;/span&gt;" style="shape=partialRectangle;html=1;whiteSpace=wrap;connectable=0;overflow=hidden;fillColor=none;top=0;left=0;bottom=0;right=0;" vertex="1" parent="TcdkBibvs6jl7-KhR7l1-2">
          <mxGeometry x="248" width="122" height="42" as="geometry" />
        </mxCell>
        <mxCell id="TcdkBibvs6jl7-KhR7l1-5" value="&lt;font style=&quot;font-size: 18px&quot;&gt;VPN[0]&lt;/font&gt;" style="shape=partialRectangle;html=1;whiteSpace=wrap;connectable=0;overflow=hidden;fillColor=none;top=0;left=0;bottom=0;right=0;" vertex="1" parent="TcdkBibvs6jl7-KhR7l1-2">
          <mxGeometry x="370" width="113" height="42" as="geometry" />
        </mxCell>
        <mxCell id="TcdkBibvs6jl7-KhR7l1-6" value="&lt;font style=&quot;font-size: 18px&quot;&gt;offset&lt;/font&gt;" style="shape=partialRectangle;html=1;whiteSpace=wrap;connectable=0;overflow=hidden;fillColor=none;top=0;left=0;bottom=0;right=0;" vertex="1" parent="TcdkBibvs6jl7-KhR7l1-2">
          <mxGeometry x="483" width="233" height="42" as="geometry" />
        </mxCell>
        <mxCell id="TcdkBibvs6jl7-KhR7l1-36" style="edgeStyle=orthogonalEdgeStyle;rounded=0;orthogonalLoop=1;jettySize=auto;html=1;exitX=1;exitY=0.5;exitDx=0;exitDy=0;entryX=0.033;entryY=0.058;entryDx=0;entryDy=0;entryPerimeter=0;" edge="1" parent="1" source="TcdkBibvs6jl7-KhR7l1-8" target="TcdkBibvs6jl7-KhR7l1-10">
          <mxGeometry relative="1" as="geometry">
            <mxPoint x="198" y="241" as="targetPoint" />
          </mxGeometry>
        </mxCell>
        <mxCell id="TcdkBibvs6jl7-KhR7l1-8" value="&lt;font style=&quot;font-size: 18px&quot;&gt;satp&lt;/font&gt;" style="rounded=0;whiteSpace=wrap;html=1;" vertex="1" parent="1">
          <mxGeometry x="27" y="219" width="95" height="43" as="geometry" />
        </mxCell>
        <mxCell id="TcdkBibvs6jl7-KhR7l1-9" value="" style="shape=table;html=1;whiteSpace=wrap;startSize=0;container=1;collapsible=0;childLayout=tableLayout;" vertex="1" parent="1">
          <mxGeometry x="208" y="236" width="60" height="137" as="geometry" />
        </mxCell>
        <mxCell id="TcdkBibvs6jl7-KhR7l1-10" value="" style="shape=partialRectangle;html=1;whiteSpace=wrap;collapsible=0;dropTarget=0;pointerEvents=0;fillColor=none;top=0;left=0;bottom=0;right=0;points=[[0,0.5],[1,0.5]];portConstraint=eastwest;" vertex="1" parent="TcdkBibvs6jl7-KhR7l1-9">
          <mxGeometry width="60" height="86" as="geometry" />
        </mxCell>
        <mxCell id="TcdkBibvs6jl7-KhR7l1-11" value="" style="shape=partialRectangle;html=1;whiteSpace=wrap;connectable=0;overflow=hidden;fillColor=none;top=0;left=0;bottom=0;right=0;" vertex="1" parent="TcdkBibvs6jl7-KhR7l1-10">
          <mxGeometry width="60" height="86" as="geometry" />
        </mxCell>
        <mxCell id="TcdkBibvs6jl7-KhR7l1-12" value="" style="shape=partialRectangle;html=1;whiteSpace=wrap;collapsible=0;dropTarget=0;pointerEvents=0;fillColor=none;top=0;left=0;bottom=0;right=0;points=[[0,0.5],[1,0.5]];portConstraint=eastwest;" vertex="1" parent="TcdkBibvs6jl7-KhR7l1-9">
          <mxGeometry y="86" width="60" height="31" as="geometry" />
        </mxCell>
        <mxCell id="TcdkBibvs6jl7-KhR7l1-13" value="&lt;font style=&quot;font-size: 14px&quot;&gt;PTE&lt;/font&gt;" style="shape=partialRectangle;html=1;whiteSpace=wrap;connectable=0;overflow=hidden;fillColor=none;top=0;left=0;bottom=0;right=0;" vertex="1" parent="TcdkBibvs6jl7-KhR7l1-12">
          <mxGeometry width="60" height="31" as="geometry" />
        </mxCell>
        <mxCell id="TcdkBibvs6jl7-KhR7l1-14" value="" style="shape=partialRectangle;html=1;whiteSpace=wrap;collapsible=0;dropTarget=0;pointerEvents=0;fillColor=none;top=0;left=0;bottom=0;right=0;points=[[0,0.5],[1,0.5]];portConstraint=eastwest;" vertex="1" parent="TcdkBibvs6jl7-KhR7l1-9">
          <mxGeometry y="117" width="60" height="20" as="geometry" />
        </mxCell>
        <mxCell id="TcdkBibvs6jl7-KhR7l1-15" value="" style="shape=partialRectangle;html=1;whiteSpace=wrap;connectable=0;overflow=hidden;fillColor=none;top=0;left=0;bottom=0;right=0;" vertex="1" parent="TcdkBibvs6jl7-KhR7l1-14">
          <mxGeometry width="60" height="20" as="geometry" />
        </mxCell>
        <mxCell id="TcdkBibvs6jl7-KhR7l1-16" value="" style="shape=table;html=1;whiteSpace=wrap;startSize=0;container=1;collapsible=0;childLayout=tableLayout;" vertex="1" parent="1">
          <mxGeometry x="342" y="334" width="60" height="137" as="geometry" />
        </mxCell>
        <mxCell id="TcdkBibvs6jl7-KhR7l1-17" value="" style="shape=partialRectangle;html=1;whiteSpace=wrap;collapsible=0;dropTarget=0;pointerEvents=0;fillColor=none;top=0;left=0;bottom=0;right=0;points=[[0,0.5],[1,0.5]];portConstraint=eastwest;" vertex="1" parent="TcdkBibvs6jl7-KhR7l1-16">
          <mxGeometry width="60" height="86" as="geometry" />
        </mxCell>
        <mxCell id="TcdkBibvs6jl7-KhR7l1-18" value="" style="shape=partialRectangle;html=1;whiteSpace=wrap;connectable=0;overflow=hidden;fillColor=none;top=0;left=0;bottom=0;right=0;" vertex="1" parent="TcdkBibvs6jl7-KhR7l1-17">
          <mxGeometry width="60" height="86" as="geometry" />
        </mxCell>
        <mxCell id="TcdkBibvs6jl7-KhR7l1-19" value="" style="shape=partialRectangle;html=1;whiteSpace=wrap;collapsible=0;dropTarget=0;pointerEvents=0;fillColor=none;top=0;left=0;bottom=0;right=0;points=[[0,0.5],[1,0.5]];portConstraint=eastwest;" vertex="1" parent="TcdkBibvs6jl7-KhR7l1-16">
          <mxGeometry y="86" width="60" height="31" as="geometry" />
        </mxCell>
        <mxCell id="TcdkBibvs6jl7-KhR7l1-20" value="&lt;font style=&quot;font-size: 14px&quot;&gt;PTE&lt;/font&gt;" style="shape=partialRectangle;html=1;whiteSpace=wrap;connectable=0;overflow=hidden;fillColor=none;top=0;left=0;bottom=0;right=0;" vertex="1" parent="TcdkBibvs6jl7-KhR7l1-19">
          <mxGeometry width="60" height="31" as="geometry" />
        </mxCell>
        <mxCell id="TcdkBibvs6jl7-KhR7l1-21" value="" style="shape=partialRectangle;html=1;whiteSpace=wrap;collapsible=0;dropTarget=0;pointerEvents=0;fillColor=none;top=0;left=0;bottom=0;right=0;points=[[0,0.5],[1,0.5]];portConstraint=eastwest;" vertex="1" parent="TcdkBibvs6jl7-KhR7l1-16">
          <mxGeometry y="117" width="60" height="20" as="geometry" />
        </mxCell>
        <mxCell id="TcdkBibvs6jl7-KhR7l1-22" value="" style="shape=partialRectangle;html=1;whiteSpace=wrap;connectable=0;overflow=hidden;fillColor=none;top=0;left=0;bottom=0;right=0;" vertex="1" parent="TcdkBibvs6jl7-KhR7l1-21">
          <mxGeometry width="60" height="20" as="geometry" />
        </mxCell>
        <mxCell id="TcdkBibvs6jl7-KhR7l1-23" value="" style="shape=table;html=1;whiteSpace=wrap;startSize=0;container=1;collapsible=0;childLayout=tableLayout;" vertex="1" parent="1">
          <mxGeometry x="469" y="425" width="60" height="137" as="geometry" />
        </mxCell>
        <mxCell id="TcdkBibvs6jl7-KhR7l1-24" value="" style="shape=partialRectangle;html=1;whiteSpace=wrap;collapsible=0;dropTarget=0;pointerEvents=0;fillColor=none;top=0;left=0;bottom=0;right=0;points=[[0,0.5],[1,0.5]];portConstraint=eastwest;" vertex="1" parent="TcdkBibvs6jl7-KhR7l1-23">
          <mxGeometry width="60" height="86" as="geometry" />
        </mxCell>
        <mxCell id="TcdkBibvs6jl7-KhR7l1-25" value="" style="shape=partialRectangle;html=1;whiteSpace=wrap;connectable=0;overflow=hidden;fillColor=none;top=0;left=0;bottom=0;right=0;" vertex="1" parent="TcdkBibvs6jl7-KhR7l1-24">
          <mxGeometry width="60" height="86" as="geometry" />
        </mxCell>
        <mxCell id="TcdkBibvs6jl7-KhR7l1-26" value="" style="shape=partialRectangle;html=1;whiteSpace=wrap;collapsible=0;dropTarget=0;pointerEvents=0;fillColor=none;top=0;left=0;bottom=0;right=0;points=[[0,0.5],[1,0.5]];portConstraint=eastwest;" vertex="1" parent="TcdkBibvs6jl7-KhR7l1-23">
          <mxGeometry y="86" width="60" height="31" as="geometry" />
        </mxCell>
        <mxCell id="TcdkBibvs6jl7-KhR7l1-27" value="&lt;font style=&quot;font-size: 14px&quot;&gt;PTE&lt;/font&gt;" style="shape=partialRectangle;html=1;whiteSpace=wrap;connectable=0;overflow=hidden;fillColor=none;top=0;left=0;bottom=0;right=0;" vertex="1" parent="TcdkBibvs6jl7-KhR7l1-26">
          <mxGeometry width="60" height="31" as="geometry" />
        </mxCell>
        <mxCell id="TcdkBibvs6jl7-KhR7l1-28" value="" style="shape=partialRectangle;html=1;whiteSpace=wrap;collapsible=0;dropTarget=0;pointerEvents=0;fillColor=none;top=0;left=0;bottom=0;right=0;points=[[0,0.5],[1,0.5]];portConstraint=eastwest;" vertex="1" parent="TcdkBibvs6jl7-KhR7l1-23">
          <mxGeometry y="117" width="60" height="20" as="geometry" />
        </mxCell>
        <mxCell id="TcdkBibvs6jl7-KhR7l1-29" value="" style="shape=partialRectangle;html=1;whiteSpace=wrap;connectable=0;overflow=hidden;fillColor=none;top=0;left=0;bottom=0;right=0;" vertex="1" parent="TcdkBibvs6jl7-KhR7l1-28">
          <mxGeometry width="60" height="20" as="geometry" />
        </mxCell>
        <mxCell id="TcdkBibvs6jl7-KhR7l1-30" value="" style="shape=table;html=1;whiteSpace=wrap;startSize=0;container=1;collapsible=0;childLayout=tableLayout;" vertex="1" parent="1">
          <mxGeometry x="17" y="634" width="710" height="44" as="geometry" />
        </mxCell>
        <mxCell id="TcdkBibvs6jl7-KhR7l1-31" value="" style="shape=partialRectangle;html=1;whiteSpace=wrap;collapsible=0;dropTarget=0;pointerEvents=0;fillColor=none;top=0;left=0;bottom=0;right=0;points=[[0,0.5],[1,0.5]];portConstraint=eastwest;" vertex="1" parent="TcdkBibvs6jl7-KhR7l1-30">
          <mxGeometry width="710" height="44" as="geometry" />
        </mxCell>
        <mxCell id="TcdkBibvs6jl7-KhR7l1-32" value="&lt;font style=&quot;font-size: 18px&quot;&gt;PPN&lt;/font&gt;" style="shape=partialRectangle;html=1;whiteSpace=wrap;connectable=0;overflow=hidden;fillColor=none;top=0;left=0;bottom=0;right=0;" vertex="1" parent="TcdkBibvs6jl7-KhR7l1-31">
          <mxGeometry width="442" height="44" as="geometry" />
        </mxCell>
        <mxCell id="TcdkBibvs6jl7-KhR7l1-33" value="&lt;font style=&quot;font-size: 18px&quot;&gt;offset&lt;/font&gt;" style="shape=partialRectangle;html=1;whiteSpace=wrap;connectable=0;overflow=hidden;fillColor=none;top=0;left=0;bottom=0;right=0;" vertex="1" parent="TcdkBibvs6jl7-KhR7l1-31">
          <mxGeometry x="442" width="268" height="44" as="geometry" />
        </mxCell>
        <mxCell id="TcdkBibvs6jl7-KhR7l1-37" style="edgeStyle=orthogonalEdgeStyle;rounded=0;orthogonalLoop=1;jettySize=auto;html=1;exitX=1;exitY=0.5;exitDx=0;exitDy=0;" edge="1" parent="1" source="TcdkBibvs6jl7-KhR7l1-12">
          <mxGeometry relative="1" as="geometry">
            <mxPoint x="342" y="338" as="targetPoint" />
          </mxGeometry>
        </mxCell>
        <mxCell id="TcdkBibvs6jl7-KhR7l1-39" style="edgeStyle=orthogonalEdgeStyle;rounded=0;orthogonalLoop=1;jettySize=auto;html=1;exitX=1;exitY=0.5;exitDx=0;exitDy=0;entryX=0;entryY=0.116;entryDx=0;entryDy=0;entryPerimeter=0;" edge="1" parent="1" source="TcdkBibvs6jl7-KhR7l1-19" target="TcdkBibvs6jl7-KhR7l1-24">
          <mxGeometry relative="1" as="geometry">
            <mxPoint x="450" y="435" as="targetPoint" />
          </mxGeometry>
        </mxCell>
        <mxCell id="TcdkBibvs6jl7-KhR7l1-40" value="" style="endArrow=classic;html=1;exitX=0.828;exitY=1;exitDx=0;exitDy=0;exitPerimeter=0;entryX=0.844;entryY=0;entryDx=0;entryDy=0;entryPerimeter=0;" edge="1" parent="1" source="TcdkBibvs6jl7-KhR7l1-2" target="TcdkBibvs6jl7-KhR7l1-31">
          <mxGeometry width="50" height="50" relative="1" as="geometry">
            <mxPoint x="649" y="286" as="sourcePoint" />
            <mxPoint x="620" y="624" as="targetPoint" />
          </mxGeometry>
        </mxCell>
        <mxCell id="TcdkBibvs6jl7-KhR7l1-42" value="" style="edgeStyle=segmentEdgeStyle;endArrow=classic;html=1;exitX=0.236;exitY=1.024;exitDx=0;exitDy=0;exitPerimeter=0;entryX=0;entryY=0.613;entryDx=0;entryDy=0;entryPerimeter=0;" edge="1" parent="1" source="TcdkBibvs6jl7-KhR7l1-2" target="TcdkBibvs6jl7-KhR7l1-12">
          <mxGeometry width="50" height="50" relative="1" as="geometry">
            <mxPoint x="134" y="451" as="sourcePoint" />
            <mxPoint x="188" y="347" as="targetPoint" />
            <Array as="points">
              <mxPoint x="188" y="341" />
            </Array>
          </mxGeometry>
        </mxCell>
        <mxCell id="TcdkBibvs6jl7-KhR7l1-43" value="" style="edgeStyle=segmentEdgeStyle;endArrow=classic;html=1;exitX=0.236;exitY=1.024;exitDx=0;exitDy=0;exitPerimeter=0;" edge="1" parent="1">
          <mxGeometry width="50" height="50" relative="1" as="geometry">
            <mxPoint x="301.996" y="147.99800000000005" as="sourcePoint" />
            <mxPoint x="343" y="436" as="targetPoint" />
            <Array as="points">
              <mxPoint x="302" y="436" />
            </Array>
          </mxGeometry>
        </mxCell>
        <mxCell id="TcdkBibvs6jl7-KhR7l1-44" value="" style="edgeStyle=segmentEdgeStyle;endArrow=classic;html=1;exitX=0.236;exitY=1.024;exitDx=0;exitDy=0;exitPerimeter=0;" edge="1" parent="1">
          <mxGeometry width="50" height="50" relative="1" as="geometry">
            <mxPoint x="414.9960000000001" y="147.99800000000005" as="sourcePoint" />
            <mxPoint x="472" y="535" as="targetPoint" />
            <Array as="points">
              <mxPoint x="415" y="535" />
              <mxPoint x="456" y="535" />
            </Array>
          </mxGeometry>
        </mxCell>
        <mxCell id="TcdkBibvs6jl7-KhR7l1-46" style="edgeStyle=orthogonalEdgeStyle;rounded=0;orthogonalLoop=1;jettySize=auto;html=1;exitX=1;exitY=0.5;exitDx=0;exitDy=0;entryX=0.3;entryY=0.023;entryDx=0;entryDy=0;entryPerimeter=0;" edge="1" parent="1" source="TcdkBibvs6jl7-KhR7l1-26" target="TcdkBibvs6jl7-KhR7l1-31">
          <mxGeometry relative="1" as="geometry">
            <mxPoint x="230" y="627" as="targetPoint" />
          </mxGeometry>
        </mxCell>
        <mxCell id="TcdkBibvs6jl7-KhR7l1-47" value="&lt;font style=&quot;font-size: 24px&quot;&gt;VA&lt;/font&gt;" style="text;html=1;strokeColor=none;fillColor=none;align=center;verticalAlign=middle;whiteSpace=wrap;rounded=0;" vertex="1" parent="1">
          <mxGeometry x="13" y="45" width="40" height="20" as="geometry" />
        </mxCell>
        <mxCell id="TcdkBibvs6jl7-KhR7l1-48" value="&lt;font style=&quot;font-size: 24px&quot;&gt;PA&lt;/font&gt;" style="text;html=1;strokeColor=none;fillColor=none;align=center;verticalAlign=middle;whiteSpace=wrap;rounded=0;" vertex="1" parent="1">
          <mxGeometry x="13" y="565" width="40" height="20" as="geometry" />
        </mxCell>
        <mxCell id="TcdkBibvs6jl7-KhR7l1-49" value="&lt;font style=&quot;font-size: 14px&quot;&gt;page table&lt;/font&gt;" style="text;html=1;strokeColor=none;fillColor=none;align=center;verticalAlign=middle;whiteSpace=wrap;rounded=0;" vertex="1" parent="1">
          <mxGeometry x="202" y="212" width="72" height="20" as="geometry" />
        </mxCell>
        <mxCell id="TcdkBibvs6jl7-KhR7l1-50" value="&lt;font style=&quot;font-size: 14px&quot;&gt;page table&lt;/font&gt;" style="text;html=1;strokeColor=none;fillColor=none;align=center;verticalAlign=middle;whiteSpace=wrap;rounded=0;" vertex="1" parent="1">
          <mxGeometry x="336" y="308" width="72" height="20" as="geometry" />
        </mxCell>
        <mxCell id="TcdkBibvs6jl7-KhR7l1-51" value="&lt;font style=&quot;font-size: 14px&quot;&gt;page table&lt;/font&gt;" style="text;html=1;strokeColor=none;fillColor=none;align=center;verticalAlign=middle;whiteSpace=wrap;rounded=0;" vertex="1" parent="1">
          <mxGeometry x="463" y="399" width="72" height="20" as="geometry" />
        </mxCell>
        <mxCell id="TcdkBibvs6jl7-KhR7l1-52" value="0" style="text;html=1;strokeColor=none;fillColor=none;align=center;verticalAlign=middle;whiteSpace=wrap;rounded=0;" vertex="1" parent="1">
          <mxGeometry x="710" y="78" width="40" height="20" as="geometry" />
        </mxCell>
        <mxCell id="TcdkBibvs6jl7-KhR7l1-53" value="11" style="text;html=1;strokeColor=none;fillColor=none;align=center;verticalAlign=middle;whiteSpace=wrap;rounded=0;" vertex="1" parent="1">
          <mxGeometry x="495" y="78" width="40" height="20" as="geometry" />
        </mxCell>
        <mxCell id="TcdkBibvs6jl7-KhR7l1-54" value="12" style="text;html=1;strokeColor=none;fillColor=none;align=center;verticalAlign=middle;whiteSpace=wrap;rounded=0;" vertex="1" parent="1">
          <mxGeometry x="469" y="78" width="40" height="20" as="geometry" />
        </mxCell>
        <mxCell id="TcdkBibvs6jl7-KhR7l1-55" value="20" style="text;html=1;strokeColor=none;fillColor=none;align=center;verticalAlign=middle;whiteSpace=wrap;rounded=0;" vertex="1" parent="1">
          <mxGeometry x="384" y="78" width="40" height="20" as="geometry" />
        </mxCell>
        <mxCell id="TcdkBibvs6jl7-KhR7l1-56" value="21&lt;span style=&quot;color: rgba(0 , 0 , 0 , 0) ; font-family: monospace ; font-size: 0px&quot;&gt;%3CmxGraphModel%3E%3Croot%3E%3CmxCell%20id%3D%220%22%2F%3E%3CmxCell%20id%3D%221%22%20parent%3D%220%22%2F%3E%3CmxCell%20id%3D%222%22%20value%3D%2212%22%20style%3D%22text%3Bhtml%3D1%3BstrokeColor%3Dnone%3BfillColor%3Dnone%3Balign%3Dcenter%3BverticalAlign%3Dmiddle%3BwhiteSpace%3Dwrap%3Brounded%3D0%3B%22%20vertex%3D%221%22%20parent%3D%221%22%3E%3CmxGeometry%20x%3D%22469%22%20y%3D%2278%22%20width%3D%2240%22%20height%3D%2220%22%20as%3D%22geometry%22%2F%3E%3C%2FmxCell%3E%3C%2Froot%3E%3C%2FmxGraphModel%3E&lt;/span&gt;" style="text;html=1;strokeColor=none;fillColor=none;align=center;verticalAlign=middle;whiteSpace=wrap;rounded=0;" vertex="1" parent="1">
          <mxGeometry x="354" y="78" width="40" height="20" as="geometry" />
        </mxCell>
        <mxCell id="TcdkBibvs6jl7-KhR7l1-57" value="29" style="text;html=1;strokeColor=none;fillColor=none;align=center;verticalAlign=middle;whiteSpace=wrap;rounded=0;" vertex="1" parent="1">
          <mxGeometry x="257" y="78" width="40" height="20" as="geometry" />
        </mxCell>
        <mxCell id="TcdkBibvs6jl7-KhR7l1-58" value="30" style="text;html=1;strokeColor=none;fillColor=none;align=center;verticalAlign=middle;whiteSpace=wrap;rounded=0;" vertex="1" parent="1">
          <mxGeometry x="234" y="78" width="40" height="20" as="geometry" />
        </mxCell>
        <mxCell id="TcdkBibvs6jl7-KhR7l1-59" value="38" style="text;html=1;strokeColor=none;fillColor=none;align=center;verticalAlign=middle;whiteSpace=wrap;rounded=0;" vertex="1" parent="1">
          <mxGeometry x="132" y="78" width="40" height="20" as="geometry" />
        </mxCell>
        <mxCell id="TcdkBibvs6jl7-KhR7l1-60" value="39" style="text;html=1;strokeColor=none;fillColor=none;align=center;verticalAlign=middle;whiteSpace=wrap;rounded=0;" vertex="1" parent="1">
          <mxGeometry x="107" y="78" width="40" height="20" as="geometry" />
        </mxCell>
        <mxCell id="TcdkBibvs6jl7-KhR7l1-61" value="63" style="text;html=1;strokeColor=none;fillColor=none;align=center;verticalAlign=middle;whiteSpace=wrap;rounded=0;" vertex="1" parent="1">
          <mxGeometry x="4" y="78" width="40" height="20" as="geometry" />
        </mxCell>
        <mxCell id="TcdkBibvs6jl7-KhR7l1-62" value="0" style="text;html=1;strokeColor=none;fillColor=none;align=center;verticalAlign=middle;whiteSpace=wrap;rounded=0;" vertex="1" parent="1">
          <mxGeometry x="695" y="607" width="40" height="20" as="geometry" />
        </mxCell>
        <mxCell id="TcdkBibvs6jl7-KhR7l1-63" value="11" style="text;html=1;strokeColor=none;fillColor=none;align=center;verticalAlign=middle;whiteSpace=wrap;rounded=0;" vertex="1" parent="1">
          <mxGeometry x="455" y="611" width="40" height="20" as="geometry" />
        </mxCell>
        <mxCell id="TcdkBibvs6jl7-KhR7l1-64" value="12" style="text;html=1;strokeColor=none;fillColor=none;align=center;verticalAlign=middle;whiteSpace=wrap;rounded=0;" vertex="1" parent="1">
          <mxGeometry x="423" y="611" width="40" height="20" as="geometry" />
        </mxCell>
        <mxCell id="TcdkBibvs6jl7-KhR7l1-65" value="55" style="text;html=1;strokeColor=none;fillColor=none;align=center;verticalAlign=middle;whiteSpace=wrap;rounded=0;" vertex="1" parent="1">
          <mxGeometry x="4" y="607" width="40" height="20" as="geometry" />
        </mxCell>
      </root>
    </mxGraphModel>
  </diagram>
</mxfile>
